<svg width="52" height="52" viewBox="0 0 52 52" fill="none" xmlns="http://www.w3.org/2000/svg">
<path d="M46.8468 27.3138C46.5085 27.3138 46.1702 27.4588 45.9043 27.7247L43.4877 30.1413L48.4418 35.0955L50.8585 32.6788C51.3902 32.1713 51.3902 31.3255 50.8585 30.818L47.7652 27.7247C47.4993 27.4588 47.1852 27.3138 46.8468 27.3138ZM42.086 31.543L27.4168 46.188V51.1663H32.3952L47.0402 36.4972L42.086 31.543ZM41.9168 24.873L24.7827 41.983C23.7918 41.3788 22.5835 41.0163 21.3752 41.0163C17.7502 41.0163 14.8502 43.9163 14.8502 47.5413V51.1663H5.66683C3.0085 51.1663 0.833496 49.0155 0.833496 46.333V37.1497H4.4585C8.0835 37.1497 10.9835 34.2497 10.9835 30.6247C10.9835 26.9997 8.0835 24.0997 4.4585 24.0997H0.833496V14.9163C0.833496 12.258 3.0085 10.083 5.66683 10.083H15.3335V6.45799C15.3335 3.12299 18.0402 0.416321 21.3752 0.416321C24.7102 0.416321 27.4168 3.12299 27.4168 6.45799V10.083H37.0835C39.7418 10.083 41.9168 12.2338 41.9168 14.9163V24.873Z" fill="white"/>
</svg>
