<svg width="82" height="65" viewBox="0 0 82 65" fill="none" xmlns="http://www.w3.org/2000/svg">
<path d="M31.7916 44.5694C31.7916 48.0391 29.9295 53.7169 25.522 53.7169C21.1145 53.7169 19.2524 48.0391 19.2524 44.5694C19.2524 41.0997 21.1145 35.4219 25.522 35.4219C29.9295 35.4219 31.7916 41.0997 31.7916 44.5694ZM81.9995 36.1856C81.9995 41.4815 81.4528 47.0928 79.0099 51.9571C72.5353 64.6739 54.7345 64.3751 41.9903 64.3751C29.0412 64.3751 10.1812 64.8233 3.45035 51.9571C0.956178 47.1426 -0.000488281 41.4815 -0.000488281 36.1856C-0.000488281 29.2296 2.37409 22.6553 7.0891 17.3262C6.20076 14.7032 5.77368 11.9473 5.77368 9.22467C5.77368 5.65533 6.61076 3.86237 8.26785 0.625061C16.0066 0.625061 20.9608 2.1192 26.8545 6.60162C31.8087 5.45612 36.8995 4.94147 42.0074 4.94147C46.6199 4.94147 51.2666 5.42291 55.7424 6.46881C61.5508 2.03619 66.5049 0.625061 74.1583 0.625061C75.8324 3.86237 76.6524 5.65533 76.6524 9.22467C76.6524 11.9473 76.2083 14.6534 75.337 17.2266C80.0349 22.6055 81.9995 29.2296 81.9995 36.1856ZM71.0149 44.5694C71.0149 37.2813 66.4537 30.8565 58.4587 30.8565C55.2299 30.8565 52.1378 31.421 48.892 31.8526C46.3466 32.2344 43.8012 32.3839 41.1874 32.3839C38.5908 32.3839 36.0453 32.2344 33.4828 31.8526C30.2883 31.421 27.162 30.8565 23.9162 30.8565C15.9212 30.8565 11.3599 37.2813 11.3599 44.5694C11.3599 59.1456 25.0949 61.3868 37.0533 61.3868H45.2874C57.297 61.3868 71.0149 59.1622 71.0149 44.5694ZM56.9041 35.4219C52.4966 35.4219 50.6345 41.0997 50.6345 44.5694C50.6345 48.0391 52.4966 53.7169 56.9041 53.7169C61.3116 53.7169 63.1737 48.0391 63.1737 44.5694C63.1737 41.0997 61.3116 35.4219 56.9041 35.4219Z" fill="white"/>
</svg>
