<svg width="8" height="8" viewBox="0 0 8 8" fill="none" xmlns="http://www.w3.org/2000/svg">
<g clip-path="url(#clip0_410_6)">
<path d="M6.89741 6.01734C6.92518 6.01734 6.92518 6.04511 6.89741 6.07288L6.61974 6.54492C6.59198 6.57268 6.56421 6.57268 6.53644 6.57268L6.20324 6.46162C6.11994 6.51715 6.0644 6.54492 5.9811 6.60045L5.92557 6.96142C5.92557 6.98919 5.8978 7.01696 5.87003 7.01696H5.31469C5.28693 7.01696 5.25916 6.98919 5.23139 6.96142L5.17586 6.60045C5.09256 6.57268 5.00925 6.51715 4.95372 6.46162L4.62052 6.60045C4.59275 6.60045 4.56498 6.60045 4.53721 6.57268L4.25954 6.10064C4.23178 6.07288 4.25954 6.04511 4.28731 6.01734L4.59275 5.79521V5.51754L4.28731 5.2954C4.25954 5.26763 4.25954 5.23987 4.25954 5.2121L4.53721 4.74006C4.56498 4.71229 4.59275 4.71229 4.62052 4.71229L4.95372 4.85113C5.03702 4.79559 5.09256 4.76783 5.17586 4.71229L5.23139 4.35132C5.23139 4.32355 5.25916 4.29579 5.31469 4.29579H5.87003C5.8978 4.29579 5.92557 4.32355 5.92557 4.35132L5.9811 4.71229C6.0644 4.74006 6.1477 4.79559 6.23101 4.85113L6.56421 4.71229C6.59198 4.71229 6.64751 4.71229 6.64751 4.74006L6.92518 5.2121C6.95295 5.23987 6.92518 5.26763 6.89741 5.2954L6.59198 5.51754V5.79521L6.89741 6.01734ZM5.9811 5.6286C5.9811 5.40647 5.78673 5.2121 5.5646 5.2121C5.34246 5.2121 5.14809 5.40647 5.14809 5.6286C5.14809 5.85074 5.34246 6.04511 5.5646 6.04511C5.78673 6.04511 5.9811 5.85074 5.9811 5.6286ZM4.17624 4.51792V2.8519H3.6209V4.51792H4.17624ZM4.73158 0.908203H3.06556V1.46354H4.73158V0.908203ZM3.7042 6.18395C2.73236 6.07288 1.95488 5.23987 1.95488 4.24025C1.95488 3.15734 2.81566 2.29656 3.89857 2.29656C4.78712 2.29656 5.53683 2.87966 5.75897 3.68491C5.9811 3.71268 6.17547 3.76821 6.36984 3.85151C6.28654 3.40724 6.11994 3.0185 5.84227 2.6853L6.25877 2.29656C6.11994 2.15772 5.9811 2.01889 5.84227 1.90782L5.45353 2.29656C5.03702 1.93558 4.48168 1.74122 3.89857 1.74122C2.51022 1.74122 1.39954 2.8519 1.39954 4.24025C1.39954 5.6286 2.51022 6.73929 3.89857 6.73929H3.98187C3.84304 6.57268 3.75974 6.37831 3.7042 6.18395Z" fill="#6271A4"/>
</g>
<defs>
<clipPath id="clip0_410_6">
<rect width="6.6641" height="6.6641" fill="white" transform="translate(0.566528 0.630859)"/>
</clipPath>
</defs>
</svg>
