<svg width="49" height="54" viewBox="0 0 49 54" fill="none" xmlns="http://www.w3.org/2000/svg">
<path d="M24 37C28.456 37 32 33.4507 32 29C32 24.5493 28.456 21 24 21C19.544 21 16 24.5493 16 29C16 33.4507 19.544 37 24 37Z" fill="white"/>
<path d="M48.5018 24.8022C47.8603 21.6927 46.6069 18.7393 44.8132 16.1109C43.0508 13.525 40.8053 11.2979 38.1982 9.54989C35.5478 7.77147 32.5702 6.52831 29.4354 5.8914C27.7887 5.56018 26.1121 5.39733 24.4319 5.4054V0L13.6111 8.09999L24.4319 16.2V10.8054C25.7495 10.8 27.067 10.9242 28.3383 11.1834C30.7748 11.6786 33.0891 12.6447 35.1493 14.0265C37.1811 15.3852 38.9298 17.1197 40.2998 19.1349C42.4267 22.254 43.5609 25.9345 43.5555 29.7C43.5551 32.2269 43.046 34.7282 42.0583 37.0575C41.5779 38.1795 40.9909 39.2535 40.3052 40.2651C39.6168 41.2705 38.8348 42.2097 37.9695 43.0704C35.3344 45.6791 31.9891 47.4685 28.3438 48.2193C25.8086 48.7269 23.1968 48.7269 20.6617 48.2193C18.2241 47.7236 15.9088 46.7566 13.8479 45.3735C11.8185 44.0159 10.0717 42.2834 8.70294 40.2705C6.5784 37.1481 5.44364 33.4669 5.44444 29.7H0C0.00289691 34.543 1.46152 39.2751 4.1895 43.2918C5.95308 45.8733 8.19623 48.0982 10.799 49.8474C14.8432 52.5621 19.6166 54.0089 24.5 54C26.1586 53.9998 27.8129 53.8343 29.4381 53.5059C32.5706 52.8643 35.5465 51.6215 38.1982 49.8474C39.5002 48.9772 40.7137 47.9834 41.8215 46.8801C42.9308 45.7768 43.9333 44.5727 44.8159 43.2837C47.5507 39.2736 49.0084 34.5413 49 29.7C48.9998 28.0549 48.8329 26.4141 48.5018 24.8022Z" fill="white"/>
</svg>
