<svg width="52" height="54" viewBox="0 0 52 54" fill="none" xmlns="http://www.w3.org/2000/svg">
<path fill-rule="evenodd" clip-rule="evenodd" d="M33.2542 3.55923C33.0374 1.53499 31.3291 0 29.2933 0H22.4828C20.5171 0 18.9236 1.59352 18.9236 3.55922C18.9236 7.96721 13.6629 10.8622 9.48147 9.01058C7.62 8.18629 5.43654 8.89817 4.41863 10.6612L1.14071 16.3388C0.122798 18.1018 0.598022 20.3487 2.24261 21.5487C5.9368 24.244 5.93678 29.7559 2.24252 32.4514C0.597928 33.6513 0.1227 35.8982 1.14061 37.6612L4.41853 43.3388C5.43644 45.1018 7.6199 45.8137 9.48137 44.9894C13.6629 43.1378 18.4364 45.8938 18.9236 50.4408C19.1404 52.465 20.8487 54 22.8845 54L29.2933 54C31.3291 54 33.0374 52.465 33.2542 50.4408C33.7414 45.8938 38.5149 43.1378 42.6964 44.9894C44.5579 45.8137 46.7414 45.1018 47.7593 43.3388L51.0372 37.6612C52.0551 35.8982 51.5799 33.6513 49.9353 32.4514C46.241 29.7559 46.241 24.244 49.9352 21.5487C51.5798 20.3487 52.055 18.1018 51.0371 16.3388L47.7592 10.6612C46.7413 8.89818 44.5578 8.18629 42.6963 9.01058C38.5149 10.8622 33.7414 8.10625 33.2542 3.55923ZM7.9098 13.2129C14.6206 15.9127 22.1112 11.5878 23.1285 4.42623H28.9026C29.92 11.588 37.4107 15.9127 44.1216 13.2129L47.0086 18.2134C41.3151 22.6753 41.3152 31.3248 47.0087 35.7866L44.1217 40.7872C37.4108 38.0873 29.92 42.412 28.9026 49.5738H23.1285C22.1112 42.4121 14.6206 38.0873 7.9097 40.7872L5.02264 35.7866C10.7161 31.3248 10.7163 22.6753 5.02274 18.2134L7.9098 13.2129Z" fill="white"/>
<path fill-rule="evenodd" clip-rule="evenodd" d="M25.6896 19.4754C21.5339 19.4754 18.165 22.8443 18.165 27C18.165 31.1557 21.5339 34.5246 25.6896 34.5246C29.8453 34.5246 33.2142 31.1557 33.2142 27C33.2142 22.8443 29.8453 19.4754 25.6896 19.4754ZM13.7388 27C13.7388 20.3998 19.0893 15.0492 25.6896 15.0492C32.2898 15.0492 37.6404 20.3998 37.6404 27C37.6404 33.6003 32.2898 38.9508 25.6896 38.9508C19.0893 38.9508 13.7388 33.6003 13.7388 27Z" fill="white"/>
</svg>
