<svg width="73" height="49" viewBox="0 0 73 49" fill="none" xmlns="http://www.w3.org/2000/svg">
<path d="M70.9712 12.0469L39.1546 1.33442C37.4208 0.750669 35.5502 0.750669 33.8176 1.33442L1.99986 12.0469C-0.685174 12.9507 -0.685174 16.8419 1.99986 17.7457L7.54672 19.6132C6.32967 21.2619 5.58142 23.2732 5.50728 25.4757C4.40886 26.1657 3.63551 27.4107 3.63551 28.8969C3.63551 30.2444 4.28339 31.3782 5.21642 32.1032L2.3044 46.4632C2.05119 47.7119 2.91806 48.8969 4.08492 48.8969H10.485C11.653 48.8969 12.5198 47.7119 12.2666 46.4632L9.35461 32.1032C10.2876 31.3782 10.9355 30.2444 10.9355 28.8969C10.9355 27.4507 10.1975 26.2407 9.14929 25.5382C9.23598 23.6607 10.112 22.0007 11.5092 20.9482L33.8164 28.4594C34.8499 28.8069 36.8323 29.2407 39.1534 28.4594L70.9712 17.7469C73.6573 16.8419 73.6573 12.9519 70.9712 12.0469ZM40.2256 32.2832C36.9714 33.3782 34.1986 32.7732 32.7443 32.2832L16.2029 26.7144L14.5855 40.8969C14.5855 45.3157 24.3903 48.8969 36.4855 48.8969C48.5807 48.8969 58.3855 45.3157 58.3855 40.8969L56.7681 26.7132L40.2256 32.2832Z" fill="black"/>
</svg>
